<mxfile host="app.diagrams.net" modified="2023-09-08T04:24:35.162Z" agent="Mozilla/5.0 (Windows NT 10.0; Win64; x64) AppleWebKit/537.36 (KHTML, like Gecko) Chrome/116.0.0.0 Safari/537.36" etag="Wx4c7FWNLa8R8HD0kc5G" version="21.7.2" type="github">
  <diagram name="Page-1" id="oOuxLkeFJIO4LKzzZFgl">
    <mxGraphModel dx="719" dy="1011" grid="1" gridSize="10" guides="1" tooltips="1" connect="1" arrows="1" fold="1" page="1" pageScale="1" pageWidth="1169" pageHeight="1654" math="0" shadow="0">
      <root>
        <mxCell id="0" />
        <mxCell id="1" parent="0" />
        <mxCell id="6VtoVTWm_dUslKnnY2PT-7" style="edgeStyle=orthogonalEdgeStyle;rounded=0;orthogonalLoop=1;jettySize=auto;html=1;exitX=1;exitY=0.5;exitDx=0;exitDy=0;entryX=0;entryY=0.5;entryDx=0;entryDy=0;" edge="1" parent="1" source="6VtoVTWm_dUslKnnY2PT-1" target="6VtoVTWm_dUslKnnY2PT-2">
          <mxGeometry relative="1" as="geometry">
            <Array as="points">
              <mxPoint x="170" y="490" />
              <mxPoint x="170" y="260" />
            </Array>
          </mxGeometry>
        </mxCell>
        <mxCell id="6VtoVTWm_dUslKnnY2PT-18" style="edgeStyle=orthogonalEdgeStyle;rounded=0;orthogonalLoop=1;jettySize=auto;html=1;exitX=1;exitY=0.5;exitDx=0;exitDy=0;entryX=0;entryY=0.5;entryDx=0;entryDy=0;" edge="1" parent="1" source="6VtoVTWm_dUslKnnY2PT-1" target="6VtoVTWm_dUslKnnY2PT-15">
          <mxGeometry relative="1" as="geometry">
            <Array as="points">
              <mxPoint x="170" y="490" />
              <mxPoint x="170" y="450" />
            </Array>
          </mxGeometry>
        </mxCell>
        <mxCell id="6VtoVTWm_dUslKnnY2PT-28" style="edgeStyle=orthogonalEdgeStyle;rounded=0;orthogonalLoop=1;jettySize=auto;html=1;exitX=1;exitY=0.5;exitDx=0;exitDy=0;entryX=0;entryY=0.5;entryDx=0;entryDy=0;" edge="1" parent="1" source="6VtoVTWm_dUslKnnY2PT-1" target="6VtoVTWm_dUslKnnY2PT-27">
          <mxGeometry relative="1" as="geometry">
            <Array as="points">
              <mxPoint x="170" y="490" />
              <mxPoint x="170" y="640" />
            </Array>
          </mxGeometry>
        </mxCell>
        <mxCell id="6VtoVTWm_dUslKnnY2PT-1" value="GamePanel_drawGame" style="rounded=1;whiteSpace=wrap;html=1;" vertex="1" parent="1">
          <mxGeometry x="10" y="470" width="150" height="40" as="geometry" />
        </mxCell>
        <mxCell id="6VtoVTWm_dUslKnnY2PT-8" style="edgeStyle=orthogonalEdgeStyle;rounded=0;orthogonalLoop=1;jettySize=auto;html=1;exitX=1;exitY=0.5;exitDx=0;exitDy=0;entryX=0;entryY=0.5;entryDx=0;entryDy=0;" edge="1" parent="1" source="6VtoVTWm_dUslKnnY2PT-2" target="6VtoVTWm_dUslKnnY2PT-3">
          <mxGeometry relative="1" as="geometry">
            <Array as="points">
              <mxPoint x="360" y="260" />
              <mxPoint x="360" y="60" />
            </Array>
          </mxGeometry>
        </mxCell>
        <mxCell id="6VtoVTWm_dUslKnnY2PT-9" style="edgeStyle=orthogonalEdgeStyle;rounded=0;orthogonalLoop=1;jettySize=auto;html=1;exitX=1;exitY=0.5;exitDx=0;exitDy=0;entryX=0;entryY=0.5;entryDx=0;entryDy=0;" edge="1" parent="1" source="6VtoVTWm_dUslKnnY2PT-2" target="6VtoVTWm_dUslKnnY2PT-4">
          <mxGeometry relative="1" as="geometry">
            <Array as="points">
              <mxPoint x="360" y="260" />
              <mxPoint x="360" y="140" />
            </Array>
          </mxGeometry>
        </mxCell>
        <mxCell id="6VtoVTWm_dUslKnnY2PT-10" style="edgeStyle=orthogonalEdgeStyle;rounded=0;orthogonalLoop=1;jettySize=auto;html=1;exitX=1;exitY=0.5;exitDx=0;exitDy=0;entryX=0;entryY=0.5;entryDx=0;entryDy=0;" edge="1" parent="1" source="6VtoVTWm_dUslKnnY2PT-2" target="6VtoVTWm_dUslKnnY2PT-5">
          <mxGeometry relative="1" as="geometry">
            <Array as="points">
              <mxPoint x="360" y="260" />
              <mxPoint x="360" y="220" />
            </Array>
          </mxGeometry>
        </mxCell>
        <mxCell id="6VtoVTWm_dUslKnnY2PT-2" value="GamePanel_drawTank" style="rounded=1;whiteSpace=wrap;html=1;" vertex="1" parent="1">
          <mxGeometry x="190" y="240" width="150" height="40" as="geometry" />
        </mxCell>
        <mxCell id="6VtoVTWm_dUslKnnY2PT-3" value="SIGame_getTank" style="rounded=1;whiteSpace=wrap;html=1;" vertex="1" parent="1">
          <mxGeometry x="410" y="40" width="120" height="40" as="geometry" />
        </mxCell>
        <mxCell id="6VtoVTWm_dUslKnnY2PT-4" value="tank_getX" style="rounded=1;whiteSpace=wrap;html=1;" vertex="1" parent="1">
          <mxGeometry x="410" y="120" width="100" height="40" as="geometry" />
        </mxCell>
        <mxCell id="6VtoVTWm_dUslKnnY2PT-13" style="edgeStyle=orthogonalEdgeStyle;rounded=0;orthogonalLoop=1;jettySize=auto;html=1;exitX=1;exitY=0.5;exitDx=0;exitDy=0;entryX=0;entryY=0.5;entryDx=0;entryDy=0;" edge="1" parent="1" source="6VtoVTWm_dUslKnnY2PT-5" target="6VtoVTWm_dUslKnnY2PT-6">
          <mxGeometry relative="1" as="geometry" />
        </mxCell>
        <mxCell id="6VtoVTWm_dUslKnnY2PT-14" style="edgeStyle=orthogonalEdgeStyle;rounded=0;orthogonalLoop=1;jettySize=auto;html=1;exitX=1;exitY=0.5;exitDx=0;exitDy=0;entryX=0;entryY=0.5;entryDx=0;entryDy=0;" edge="1" parent="1" source="6VtoVTWm_dUslKnnY2PT-5" target="6VtoVTWm_dUslKnnY2PT-12">
          <mxGeometry relative="1" as="geometry" />
        </mxCell>
        <mxCell id="6VtoVTWm_dUslKnnY2PT-5" value="GamePanel_createTankFront" style="rounded=1;whiteSpace=wrap;html=1;" vertex="1" parent="1">
          <mxGeometry x="390" y="200" width="190" height="40" as="geometry" />
        </mxCell>
        <mxCell id="6VtoVTWm_dUslKnnY2PT-6" value="tank_isFacingRight" style="rounded=1;whiteSpace=wrap;html=1;" vertex="1" parent="1">
          <mxGeometry x="620" y="120" width="130" height="40" as="geometry" />
        </mxCell>
        <mxCell id="6VtoVTWm_dUslKnnY2PT-12" value="tank_getX" style="rounded=1;whiteSpace=wrap;html=1;" vertex="1" parent="1">
          <mxGeometry x="630" y="200" width="90" height="40" as="geometry" />
        </mxCell>
        <mxCell id="6VtoVTWm_dUslKnnY2PT-25" style="edgeStyle=orthogonalEdgeStyle;rounded=0;orthogonalLoop=1;jettySize=auto;html=1;exitX=1;exitY=0.5;exitDx=0;exitDy=0;entryX=0;entryY=0.5;entryDx=0;entryDy=0;" edge="1" parent="1" source="6VtoVTWm_dUslKnnY2PT-15" target="6VtoVTWm_dUslKnnY2PT-19">
          <mxGeometry relative="1" as="geometry" />
        </mxCell>
        <mxCell id="6VtoVTWm_dUslKnnY2PT-26" style="edgeStyle=orthogonalEdgeStyle;rounded=0;orthogonalLoop=1;jettySize=auto;html=1;exitX=1;exitY=0.5;exitDx=0;exitDy=0;entryX=0;entryY=0.5;entryDx=0;entryDy=0;" edge="1" parent="1" source="6VtoVTWm_dUslKnnY2PT-15" target="6VtoVTWm_dUslKnnY2PT-20">
          <mxGeometry relative="1" as="geometry" />
        </mxCell>
        <mxCell id="6VtoVTWm_dUslKnnY2PT-15" value="GamePanel_drawInvaders" style="rounded=1;whiteSpace=wrap;html=1;" vertex="1" parent="1">
          <mxGeometry x="200" y="430" width="170" height="40" as="geometry" />
        </mxCell>
        <mxCell id="6VtoVTWm_dUslKnnY2PT-19" value="SIGame_getInvaders" style="rounded=1;whiteSpace=wrap;html=1;" vertex="1" parent="1">
          <mxGeometry x="410" y="360" width="140" height="40" as="geometry" />
        </mxCell>
        <mxCell id="6VtoVTWm_dUslKnnY2PT-23" style="edgeStyle=orthogonalEdgeStyle;rounded=0;orthogonalLoop=1;jettySize=auto;html=1;exitX=1;exitY=0.5;exitDx=0;exitDy=0;entryX=0;entryY=0.5;entryDx=0;entryDy=0;" edge="1" parent="1" source="6VtoVTWm_dUslKnnY2PT-20" target="6VtoVTWm_dUslKnnY2PT-21">
          <mxGeometry relative="1" as="geometry" />
        </mxCell>
        <mxCell id="6VtoVTWm_dUslKnnY2PT-24" style="edgeStyle=orthogonalEdgeStyle;rounded=0;orthogonalLoop=1;jettySize=auto;html=1;exitX=1;exitY=0.5;exitDx=0;exitDy=0;entryX=0;entryY=0.5;entryDx=0;entryDy=0;" edge="1" parent="1" source="6VtoVTWm_dUslKnnY2PT-20" target="6VtoVTWm_dUslKnnY2PT-22">
          <mxGeometry relative="1" as="geometry" />
        </mxCell>
        <mxCell id="6VtoVTWm_dUslKnnY2PT-20" value="GamePanel_drawInvader" style="rounded=1;whiteSpace=wrap;html=1;" vertex="1" parent="1">
          <mxGeometry x="410" y="430" width="160" height="40" as="geometry" />
        </mxCell>
        <mxCell id="6VtoVTWm_dUslKnnY2PT-21" value="Invader_getY" style="rounded=1;whiteSpace=wrap;html=1;" vertex="1" parent="1">
          <mxGeometry x="610" y="460" width="120" height="40" as="geometry" />
        </mxCell>
        <mxCell id="6VtoVTWm_dUslKnnY2PT-22" value="Invader_getX" style="rounded=1;whiteSpace=wrap;html=1;" vertex="1" parent="1">
          <mxGeometry x="610" y="390" width="120" height="40" as="geometry" />
        </mxCell>
        <mxCell id="6VtoVTWm_dUslKnnY2PT-34" style="edgeStyle=orthogonalEdgeStyle;rounded=0;orthogonalLoop=1;jettySize=auto;html=1;exitX=1;exitY=0.5;exitDx=0;exitDy=0;entryX=0;entryY=0.5;entryDx=0;entryDy=0;" edge="1" parent="1" source="6VtoVTWm_dUslKnnY2PT-27" target="6VtoVTWm_dUslKnnY2PT-29">
          <mxGeometry relative="1" as="geometry">
            <Array as="points">
              <mxPoint x="390" y="640" />
              <mxPoint x="390" y="580" />
            </Array>
          </mxGeometry>
        </mxCell>
        <mxCell id="6VtoVTWm_dUslKnnY2PT-35" style="edgeStyle=orthogonalEdgeStyle;rounded=0;orthogonalLoop=1;jettySize=auto;html=1;exitX=1;exitY=0.5;exitDx=0;exitDy=0;entryX=0;entryY=0.5;entryDx=0;entryDy=0;" edge="1" parent="1" source="6VtoVTWm_dUslKnnY2PT-27" target="6VtoVTWm_dUslKnnY2PT-31">
          <mxGeometry relative="1" as="geometry">
            <Array as="points">
              <mxPoint x="390" y="640" />
              <mxPoint x="390" y="720" />
            </Array>
          </mxGeometry>
        </mxCell>
        <mxCell id="6VtoVTWm_dUslKnnY2PT-27" value="GamePanel_drawMissiles" style="rounded=1;whiteSpace=wrap;html=1;" vertex="1" parent="1">
          <mxGeometry x="205" y="620" width="160" height="40" as="geometry" />
        </mxCell>
        <mxCell id="6VtoVTWm_dUslKnnY2PT-29" value="SIGame_getMissiles" style="rounded=1;whiteSpace=wrap;html=1;" vertex="1" parent="1">
          <mxGeometry x="418" y="560" width="140" height="40" as="geometry" />
        </mxCell>
        <mxCell id="6VtoVTWm_dUslKnnY2PT-36" style="edgeStyle=orthogonalEdgeStyle;rounded=0;orthogonalLoop=1;jettySize=auto;html=1;exitX=1;exitY=0.5;exitDx=0;exitDy=0;entryX=0;entryY=0.5;entryDx=0;entryDy=0;" edge="1" parent="1" source="6VtoVTWm_dUslKnnY2PT-31" target="6VtoVTWm_dUslKnnY2PT-32">
          <mxGeometry relative="1" as="geometry" />
        </mxCell>
        <mxCell id="6VtoVTWm_dUslKnnY2PT-37" style="edgeStyle=orthogonalEdgeStyle;rounded=0;orthogonalLoop=1;jettySize=auto;html=1;exitX=1;exitY=0.5;exitDx=0;exitDy=0;entryX=0;entryY=0.5;entryDx=0;entryDy=0;" edge="1" parent="1" source="6VtoVTWm_dUslKnnY2PT-31" target="6VtoVTWm_dUslKnnY2PT-33">
          <mxGeometry relative="1" as="geometry" />
        </mxCell>
        <mxCell id="6VtoVTWm_dUslKnnY2PT-31" value="GamePanel_drawMissile" style="rounded=1;whiteSpace=wrap;html=1;" vertex="1" parent="1">
          <mxGeometry x="408" y="700" width="160" height="40" as="geometry" />
        </mxCell>
        <mxCell id="6VtoVTWm_dUslKnnY2PT-32" value="Missile_getX" style="rounded=1;whiteSpace=wrap;html=1;" vertex="1" parent="1">
          <mxGeometry x="610" y="660" width="120" height="40" as="geometry" />
        </mxCell>
        <mxCell id="6VtoVTWm_dUslKnnY2PT-33" value="Missile_getY" style="rounded=1;whiteSpace=wrap;html=1;" vertex="1" parent="1">
          <mxGeometry x="610" y="740" width="120" height="40" as="geometry" />
        </mxCell>
      </root>
    </mxGraphModel>
  </diagram>
</mxfile>
